<svg width="1046" height="711" viewBox="0 0 1046 711" fill="none">
<path d="M1046 0H0V711H1046V0Z" fill="#FDF7F7" />
<path d="M739 205L903.5 105L930.5 297L782 308.5L739 205Z" fill="#B2CDEB" id="Block3" />
<path d="M423 138L620.5 118.5L607 291.5L449 262L423 138Z" fill="#B2CDEB" id="Block2" />
<path d="M110.5 92L328 97.5L307 308.5L110.5 297V92Z" fill="#B2CDEB" id="Block1" />
<path d="M139.5 476.5L295 424L282.5 585L163 596L139.5 476.5Z" fill="#B2CDEB" id="Block4" />
<path d="M449 404L423 610L607 495.5L449 404Z" fill="#B2CDEB" id="Block5" />
<path d="M764 431.5V577.5H942L887.5 444.5L764 431.5Z" fill="#B2CDEB" id="Block6" />
<path d="M739 205L903.5 105L930.5 297L782 308.5L739 205Z" stroke="#502828" />
<path d="M423 138L620.5 118.5L607 291.5L449 262L423 138Z" stroke="#502828" />
<path d="M110.5 92L328 97.5L307 308.5L110.5 297V92Z" stroke="#502828" />
<path d="M139.5 476.5L295 424L282.5 585L163 596L139.5 476.5Z" stroke="#502828" />
<path d="M449 404L423 610L607 495.5L449 404Z" stroke="#502828" />
<path d="M764 431.5V577.5H942L887.5 444.5L764 431.5Z" stroke="#502828" />
</svg>